<?xml version="1.0" encoding="UTF-8"?>
<svg version="1.1" xmlns="http://www.w3.org/2000/svg" width="3750" height="3750">
<path d="M0 0 C47.27989489 -1.25485134 94.68912887 11.39639413 133.94091797 38.06201172 C134.53130859 38.45710938 135.12169922 38.85220703 135.72998047 39.25927734 C146.91731019 46.7873153 157.53802952 55.37844003 166.94091797 65.06201172 C170.69876638 63.49260867 173.10120771 61.13488097 176.00341797 58.31201172 C215.78768452 20.93301337 270.66822676 1.56254355 324.75341797 1.68701172 C325.64799713 1.68755554 326.54257629 1.68809937 327.46426392 1.68865967 C376.35322633 1.82461491 424.50938564 17.44988207 462.94091797 48.06201172 C463.80330078 48.73232422 464.66568359 49.40263672 465.55419922 50.09326172 C471.0405396 54.44982238 476.20452689 59.08906525 481.30895996 63.88246155 C482.35684291 64.86626709 482.35684291 64.86626709 483.42589521 65.86994749 C491.02784626 73.04062641 498.42329289 80.41104983 505.80224609 87.80981445 C507.31176084 89.31961223 508.82149772 90.82918796 510.33143616 92.33856201 C514.37598866 96.38283105 518.4174804 100.4301456 522.45837212 104.47807193 C526.70191644 108.72792585 530.94834895 112.97489205 535.19445801 117.22218323 C543.21057291 125.24138924 551.22413838 133.26313777 559.23675966 141.28583437 C568.36917715 150.42948246 577.50448092 159.57024462 586.64001179 168.71078193 C605.41016267 187.49134686 624.17673959 206.27547963 642.94091797 225.06201172 C641.1079638 229.04770756 638.52848544 231.64275524 635.31591797 234.56201172 C634.74252686 235.084646 634.16913574 235.60728027 633.57836914 236.14575195 C621.41979034 247.03614812 608.04171667 255.90318167 593.94091797 264.06201172 C593.31926758 264.4277832 592.69761719 264.79355469 592.05712891 265.17041016 C542.59588937 294.06575854 480.36082727 299.09998692 425.60253906 284.78759766 C380.83576245 272.58370295 345.85589796 247.36759861 313.57226562 214.92041016 C311.98444417 213.33202315 310.39617941 211.74407919 308.80751038 210.15653992 C304.53745905 205.88705749 300.27356009 201.61148 296.01081896 197.33470058 C291.53950806 192.85080431 287.06245296 188.37265061 282.58602905 183.89385986 C275.08683154 176.38917187 267.59112495 168.88101151 260.09814453 161.37011719 C252.38730064 153.64085795 244.67431625 145.91374489 236.95849609 138.18945312 C236.48126793 137.71169952 236.00403978 137.23394591 235.51235016 136.74171492 C233.11773818 134.34449249 230.72308462 131.9473116 228.32841039 129.55015135 C208.52613028 109.72720635 188.73118746 89.896947 168.94091797 70.06201172 C165.11835179 71.64205469 162.70004926 74.05434335 159.79475021 76.96208382 C159.03312411 77.72024839 159.03312411 77.72024839 158.25611162 78.49372941 C156.54817772 80.19635036 154.84749782 81.90603822 153.14666748 83.61575317 C151.91445168 84.84709717 150.68179662 86.07800173 149.44873929 87.30850303 C146.05559527 90.69716452 142.66873655 94.09204842 139.28284454 97.4879539 C135.63277597 101.14664161 131.97694782 104.79956606 128.32180786 108.45318604 C121.987801 114.78614307 115.65747274 121.12275813 109.32961273 127.46185684 C100.18053076 136.62717763 91.02594564 145.78698529 81.86999837 154.94544719 C67.01602645 169.80379875 52.1665284 184.66661322 37.31982422 199.53222656 C22.89573218 213.97467042 8.46954568 228.41501684 -5.95947266 242.85253906 C-6.84854644 243.7421383 -7.73762023 244.63173753 -8.65363565 245.54829432 C-13.11377196 250.01104066 -17.57394957 254.4737457 -22.03414774 258.93643022 C-59.04886705 295.97189042 -96.05633442 333.01459066 -133.05908203 370.06201172 C-131.47591684 373.89847209 -129.04494553 376.32467688 -126.12777519 379.23941422 C-125.6189554 379.7505417 -125.1101356 380.26166918 -124.58589703 380.78828537 C-122.87178964 382.50770601 -121.15061429 384.21987287 -119.42941284 385.93218994 C-118.18981924 387.17265534 -116.95066508 388.41356 -115.71191418 389.65486693 C-112.30044969 393.07081409 -108.88276237 396.48047594 -105.46405387 399.88917112 C-101.78082614 403.56377989 -98.10336148 407.24414807 -94.42520142 410.92382812 C-88.04968257 417.30039681 -81.67050556 423.6732869 -75.28884506 430.0437088 C-66.06198617 439.25432902 -56.84064024 448.47045229 -47.62064017 457.68793771 C-32.66246002 472.64173819 -17.6998169 487.59106483 -2.734375 502.53759766 C11.80507404 517.05869493 26.3424257 531.58188664 40.87695312 546.10791016 C41.77252635 547.00295794 42.66809958 547.89800572 43.59081139 548.82017615 C48.08352587 553.3102806 52.57619905 557.80042636 57.06885171 562.29059267 C94.35314018 599.55414017 131.64466871 636.81043578 168.94091797 674.06201172 C167.99038089 675.18000434 167.03855089 676.29689778 166.08618164 677.41333008 C165.55627121 678.03541855 165.02636078 678.65750702 164.48039246 679.29844666 C150.36292721 695.47089296 130.68664714 707.12560671 111.94091797 717.06201172 C111.2491748 717.43519531 110.55743164 717.80837891 109.84472656 718.19287109 C57.61104381 746.01255924 -6.04665826 748.41823901 -61.99658203 731.74951172 C-72.06533778 728.6269662 -81.57892885 724.64611379 -91.05908203 720.06201172 C-91.7508252 719.73587891 -92.44256836 719.40974609 -93.15527344 719.07373047 C-112.33180658 710.03252865 -129.9899549 698.06630423 -145.43408203 683.51123047 C-147.40572994 681.67161255 -149.39480833 679.92303063 -151.44644928 678.17811489 C-157.39318935 672.97973934 -162.91148907 667.34437429 -168.48620605 661.75514221 C-169.73858702 660.50319781 -170.99118791 659.25147339 -172.24398851 657.99994892 C-175.67143571 654.57472993 -179.09577016 651.14641391 -182.5195899 647.71756947 C-186.21773745 644.01509352 -189.91878479 640.3155182 -193.61947632 636.61558533 C-200.02598384 630.20960153 -206.43066147 623.80179295 -212.83409119 617.39273262 C-222.09231871 608.12636954 -231.3533144 598.86277708 -240.61498266 589.59985315 C-255.64225192 574.57039661 -270.6672878 559.5387094 -285.69091797 544.50561523 C-300.28284359 529.90450714 -314.8758217 515.30445227 -329.47021484 500.70581055 C-330.82017116 499.35546015 -330.82017116 499.35546015 -332.19739932 497.97782994 C-336.71240655 493.46151765 -341.22743446 488.94522604 -345.74247265 484.42894471 C-383.18454938 446.97650543 -420.62300114 409.52044414 -458.05908203 372.06201172 C-456.46869033 368.19375587 -453.99431223 365.74766216 -451.05641747 362.81045818 C-450.5398642 362.29129763 -450.02331094 361.77213708 -449.49110454 361.2372444 C-447.75061208 359.49043151 -446.00305053 357.75086639 -444.25546265 356.01115417 C-442.99682322 354.75092716 -441.73862176 353.4902626 -440.48082221 352.22919732 C-437.01640221 348.75834883 -433.54574961 345.29379109 -430.07406831 341.83020771 C-426.33343989 338.09614531 -422.59856539 334.3563356 -418.86297607 330.61723328 C-411.54007491 323.28928401 -404.21183298 315.96669804 -396.88178794 308.64589544 C-388.34687713 300.12136005 -379.81718718 291.59160869 -371.28770609 283.06164102 C-356.06603339 267.83946734 -340.83953041 252.62213444 -325.61035156 237.4074707 C-310.8332926 222.64448866 -296.05972954 207.87801995 -281.29003906 193.10766602 C-280.38106709 192.19865409 -279.47209511 191.28964215 -278.53557853 190.35308441 C-277.62818005 189.44564557 -276.72078157 188.53820674 -275.78588617 187.60326976 C-258.9766379 170.79333122 -242.16409927 153.98668699 -225.35003196 137.18156877 C-219.40385069 131.23840228 -213.45864486 125.29426106 -207.51374435 119.34981346 C-200.26457887 112.10133087 -193.0135207 104.85474758 -185.76011054 97.61051246 C-182.05972994 93.91474259 -178.3601312 90.2181993 -174.66268539 86.5194931 C-171.275759 83.1314682 -167.88652111 79.74577343 -164.49544545 76.36190168 C-163.27108818 75.13935112 -162.0475616 73.91596794 -160.82496636 72.6916553 C-154.746182 66.60528026 -148.65871901 60.59121247 -142.05908203 55.06201172 C-141.45178139 54.5488568 -140.84448075 54.03570188 -140.21877706 53.50699681 C-100.99866833 20.50784524 -51.23589067 1.54303014 0 0 Z " fill="#2867B2" transform="translate(1782.05908203125,1035.93798828125)"/>
<path d="M0 0 C5.65123271 5.2930893 11.11334661 10.77441718 16.58063471 16.2560792 C17.84145612 17.5164633 19.10249776 18.77662713 20.3637374 20.03659272 C23.79128223 23.46192376 27.21573876 26.89032718 30.63965321 30.31928658 C34.346564 34.03054695 38.05639653 37.73888481 41.76586115 41.44759226 C48.17991921 47.86112792 54.59215501 54.27648071 61.0031296 60.69309855 C70.27213717 69.97025978 79.5439301 79.24463321 88.81638839 88.51834533 C103.86306901 103.56721041 118.90751869 118.6183037 133.95055354 133.67081308 C148.5567984 148.28624777 163.16410123 162.90062375 177.77281916 177.51358652 C178.67446342 178.4154935 179.57610767 179.31740048 180.50507448 180.24663797 C185.02871258 184.77158118 189.5523714 189.29650369 194.07604051 193.8214159 C231.55866309 231.31439222 269.03766018 268.81099109 306.51427424 306.30997324 C304.93892031 310.15350151 302.35145387 312.75331591 299.45028269 315.62844038 C298.92708514 316.15484441 298.40388759 316.68124844 297.86483556 317.22360411 C296.10168269 318.99509118 294.33146139 320.75934187 292.56121027 322.52373362 C291.28622587 323.80173719 290.01167648 325.08017488 288.7375263 326.35901016 C285.22769985 329.87915665 281.7116227 333.39300168 278.19449985 336.90585601 C274.40470163 340.69319405 270.62063906 344.48625528 266.8358227 348.27857065 C259.41484307 355.71232212 251.9883693 363.1405614 244.55983266 370.56676043 C238.51864415 376.60616726 232.4792217 382.64733466 226.44105494 388.68976259 C225.5822307 389.54918203 224.72340645 390.40860146 223.83855723 391.29406391 C222.09385235 393.03998054 220.34914865 394.78589837 218.60444614 396.53181737 C202.22631351 412.92083652 185.84165382 429.30331834 169.45503089 445.68384778 C154.47813691 460.65557983 139.50945373 475.63549008 124.54466048 490.61931641 C109.17529848 506.00807569 93.80036218 521.39124527 78.41942155 536.76843208 C69.78596689 545.39997652 61.15471506 554.03369609 52.52929652 562.67327166 C45.18044572 570.0340618 37.82632323 577.38953554 30.46546206 584.73831595 C26.71318594 588.48471939 22.9633068 592.23343814 19.21998751 595.9887929 C15.78525629 599.43443814 12.34353074 602.87293977 8.89637002 606.3061487 C7.65805201 607.54183475 6.42219587 608.77999458 5.18923178 610.0210228 C-2.89381552 618.15320666 -11.32088022 625.4199283 -20.48572576 632.30997324 C-21.98043846 633.43971861 -21.98043846 633.43971861 -23.50534737 634.59228712 C-71.06776868 670.22720586 -132.86159459 684.67735013 -191.48572576 676.30997324 C-236.75072869 669.59288179 -277.63580007 649.99527153 -311.61536443 619.49796152 C-312.19648992 618.97959726 -312.77761541 618.46123301 -313.37635076 617.92716074 C-313.88198553 617.46938242 -314.38762029 617.0116041 -314.90857732 616.53995371 C-316.66668315 615.16884889 -318.46696337 614.24511114 -320.48572576 613.30997324 C-321.0103742 613.88102793 -321.53502264 614.45208261 -322.07556951 615.04044199 C-329.80861091 623.1337582 -338.43978553 629.7556669 -347.48572576 636.30997324 C-348.42376043 636.99108164 -348.42376043 636.99108164 -349.38074529 637.6859498 C-366.26183774 649.79041348 -384.8616201 658.64075631 -404.48572576 665.30997324 C-405.31427068 665.59211679 -406.1428156 665.87426035 -406.99646795 666.16495371 C-425.61968961 672.3836879 -445.18273655 676.36455225 -464.85681951 676.54825449 C-465.72837682 676.55804834 -466.59993413 676.5678422 -467.49790227 676.57793283 C-486.82442868 676.75033593 -505.54657983 676.63647494 -524.48572576 672.30997324 C-525.43060857 672.0956666 -526.37549139 671.88135996 -527.34900701 671.66055918 C-547.00284521 667.04284822 -565.71210187 659.8456061 -583.48572576 650.30997324 C-584.13847478 649.96885508 -584.79122381 649.62773691 -585.4637531 649.27628183 C-608.32210058 637.30923184 -627.03075264 620.08106381 -645.10804021 601.91470957 C-646.73512263 600.2870618 -648.36264796 598.65985669 -649.99057806 597.03305674 C-654.37225534 592.65194911 -658.74777432 588.26473886 -663.1221472 583.87633967 C-667.7082487 579.2776659 -672.30008177 574.68472216 -676.89128911 570.09114695 C-684.58477538 562.39216716 -692.27476827 554.68971437 -699.96204412 546.98453379 C-707.87373803 539.05443183 -715.78756706 531.12647052 -723.70423162 523.20133066 C-724.19367048 522.71136635 -724.68310935 522.22140204 -725.1873797 521.71659032 C-727.64319862 519.25816099 -730.09905909 516.79977318 -732.55494022 514.34140599 C-752.8716465 494.00402616 -773.18101729 473.65933135 -793.48572576 453.30997324 C-781.36029781 427.8229168 -737.8256486 408.44207786 -713.11072576 399.43497324 C-655.72427482 379.37908503 -593.25877646 382.03568829 -538.20056951 407.99747324 C-508.80407021 422.23873606 -485.50580497 443.11755834 -462.61951482 466.06265879 C-461.06132945 467.62112684 -459.50292264 469.17937354 -457.94431341 470.7374177 C-453.74870185 474.93274443 -449.55616277 479.1311291 -445.3642019 483.33010316 C-440.96980922 487.73078203 -436.57255089 492.12859565 -432.17560613 496.52672434 C-423.86540893 504.84001941 -415.55776234 513.15585844 -407.25104725 521.47263271 C-400.61228692 528.11931337 -393.97229465 534.76476141 -387.33142889 541.40933847 C-386.86263627 541.87839382 -386.39384365 542.34744916 -385.91084519 542.8307183 C-383.55862684 545.18424186 -381.20638657 547.53774353 -378.85413826 549.89123714 C-359.39482635 569.36097844 -339.93908736 588.83428677 -320.48572576 608.30997324 C-316.66315958 606.72993027 -314.24485705 604.31764161 -311.33955801 601.40990114 C-310.5779319 600.65173657 -310.5779319 600.65173657 -309.80091941 599.87825555 C-308.09298551 598.1756346 -306.39230561 596.46594674 -304.69147527 594.75623178 C-303.45925947 593.52488778 -302.22660441 592.29398323 -300.99354708 591.06348193 C-297.60040306 587.67482044 -294.21354434 584.27993654 -290.82765234 580.88403106 C-287.17758376 577.22534335 -283.52175561 573.5724189 -279.86661565 569.91879892 C-273.53260879 563.58584189 -267.20228053 557.24922683 -260.87442052 550.91012812 C-251.72533855 541.74480733 -242.57075343 532.58499967 -233.41480616 523.42653777 C-218.56083424 508.5681862 -203.71133619 493.70537174 -188.86463201 478.8397584 C-174.44053997 464.39731453 -160.01435347 449.95696811 -145.58533514 435.5194459 C-144.69626135 434.62984666 -143.80718756 433.74024743 -142.89117214 432.82369064 C-138.43103584 428.3609443 -133.97085822 423.89823926 -129.51066005 419.43555474 C-92.49594074 382.40009454 -55.48847337 345.3573943 -18.48572576 308.30997324 C-20.06649968 304.47991896 -22.48740996 302.06501468 -25.40420854 299.15936136 C-25.91163956 298.65112064 -26.41907057 298.14287992 -26.94187829 297.61923796 C-28.65125111 295.90958306 -30.36769925 294.20721168 -32.08416021 292.50467539 C-33.32034886 291.27119396 -34.55609071 290.03726463 -35.79142255 288.80292511 C-39.19345862 285.40613203 -42.60167606 282.01559996 -46.01086998 278.62599301 C-49.68391629 274.9718306 -53.35115361 271.31184733 -57.01898992 267.65245676 C-63.37685265 261.31061583 -69.73808469 254.97217095 -76.10133207 248.63573313 C-86.15188284 238.62704146 -96.1926925 228.60860931 -106.23201787 218.58865976 C-109.66476352 215.16279417 -113.09758507 211.73700465 -116.53043878 208.31124735 C-117.38833656 207.45512123 -118.24623433 206.59899511 -119.13012901 205.71692577 C-128.89764025 195.96991382 -138.66747658 186.2252337 -148.43811834 176.48135996 C-149.77810602 175.14503611 -149.77810602 175.14503611 -151.14516417 173.78171581 C-165.63607709 159.33084677 -180.13287817 144.88589493 -194.63096657 130.4422254 C-209.5031449 115.62539341 -224.36576007 100.7990133 -239.22030133 85.96449947 C-248.39079045 76.80711523 -257.56922701 67.65784114 -266.75788603 58.51868832 C-273.04797062 52.26121131 -279.32905949 45.99480049 -285.60302111 39.72115839 C-289.22787888 36.09707048 -292.85679088 32.47728744 -296.49659956 28.86821032 C-299.82376801 25.56897825 -303.13939053 22.25859775 -306.445927 18.93869191 C-307.64872802 17.73516117 -308.85583804 16.53591952 -310.06747385 15.3412835 C-311.70494667 13.72559198 -313.32650173 12.0954806 -314.9447664 10.46058512 C-315.85235301 9.55598126 -316.75993961 8.6513774 -317.69502884 7.71936131 C-319.48572576 5.30997324 -319.48572576 5.30997324 -319.41821736 3.15016937 C-317.88242056 0.11939962 -315.41947436 -1.95619493 -312.92322576 -4.19002676 C-312.05528387 -4.97506582 -312.05528387 -4.97506582 -311.16980779 -5.77596426 C-238.01564688 -70.8191746 -129.77833109 -81.55937164 0 0 Z " fill="#2867B2" transform="translate(2118.48572576046,1394.6900267601013)"/>
<path d="M0 0 C15.84 0 31.68 0 48 0 C54.87769515 20.56290489 61.74500828 41.12620413 68.4375 61.75 C74.20735028 79.52989598 80.03071229 97.29184774 85.87023926 115.0489502 C90.02441142 127.68131704 94.17499093 140.31486566 98.32585907 152.94831848 C98.9813468 154.94323081 99.63693258 156.9381109 100.2925415 158.9329834 C102.58762352 165.91721086 104.88014009 172.90226796 107.16802979 179.88885498 C107.83631171 181.92826913 108.5055092 183.96738354 109.17572021 186.00616455 C112.66317484 196.61688322 116.05374571 207.22460974 119 218 C118.83748025 216.70097024 118.6749605 215.40194048 118.50751591 214.06354618 C117.986759 209.35236415 117.86221663 204.71921363 117.87974548 199.98326111 C117.87889106 199.12210884 117.87803663 198.26095657 117.87715632 197.37370878 C117.87552068 194.51335897 117.88099125 191.65306894 117.88647461 188.79272461 C117.88675692 186.73230999 117.88659789 184.67189527 117.8860321 182.61148071 C117.88574585 177.03573634 117.89161485 171.4600136 117.89860606 165.88427424 C117.90486817 160.05066332 117.90544566 154.21705187 117.90663147 148.38343811 C117.90973636 137.34457606 117.9179384 126.30572395 117.92798096 115.26686627 C117.93916824 102.69616045 117.94465914 90.12545416 117.94967639 77.5547446 C117.96012172 51.7031563 117.97845674 25.8515816 118 0 C134.5 0 151 0 168 0 C168 112.53 168 225.06 168 341 C151.17 341 134.34 341 117 341 C107.66063743 313.66290747 98.33858712 286.32001994 89.03222656 258.97167969 C87.0193023 253.05649692 85.00583175 247.14150021 82.9921875 241.2265625 C82.66231842 240.25758026 82.33244934 239.28859802 81.99258423 238.29025269 C80.33453977 233.41985789 78.67637905 228.54950271 77.01806641 223.67919922 C73.94206074 214.64488081 70.86700359 205.61024347 67.7956543 196.57434082 C66.37263965 192.38804531 64.94903471 188.20195063 63.52539062 184.01586914 C62.85843209 182.05421705 62.19175048 180.09247078 61.52539062 178.13061523 C56.74763734 164.06456478 51.89643415 150.02517404 47 136 C47.14174086 136.93264427 47.28348171 137.86528854 47.42951775 138.82619476 C48.98067409 149.64665718 49.27412088 160.24900139 49.22705078 171.16601562 C49.22648513 173.03042088 49.22680622 174.89482657 49.22793579 176.75923157 C49.22850431 181.76849499 49.21683205 186.77766058 49.20278788 191.78690147 C49.1901961 197.04123805 49.18910341 202.29557742 49.18673706 207.54992676 C49.18054693 217.47651093 49.16416985 227.40305049 49.14403808 237.32961512 C49.12160185 248.64052648 49.11066631 259.95144009 49.10064721 271.2623682 C49.07980115 294.50827581 49.04315612 317.75412236 49 341 C32.83 341 16.66 341 0 341 C0 228.47 0 115.94 0 0 Z M120 223 C121 225 121 225 121 225 Z " fill="#2867B2" transform="translate(1944,2238)"/>
<path d="M0 0 C116.75094221 0 116.75094221 0 138.6796875 20.51953125 C160.54143779 43.89025756 161.08666585 80.4379066 160.16845703 110.41992188 C159.02552636 134.70968337 152.6272965 160.102951 134.4921875 177.390625 C132.35934971 179.3028244 130.19378134 181.15878029 128 183 C131.10392324 198.46468339 134.80569194 213.76081111 138.59375 229.0703125 C139.2289423 231.64794597 139.86386323 234.22564474 140.49841309 236.80343628 C141.98912676 242.85700394 143.48291283 248.90980852 144.97800398 254.96229637 C147.65081004 265.78298785 150.31777905 276.60511916 152.98437166 287.42734325 C154.06407981 291.80870685 155.14570014 296.18959561 156.22790527 300.57034302 C157.82644568 307.04498583 159.41657082 313.52164605 161 320 C161.22114471 320.9017672 161.44228943 321.80353439 161.6701355 322.73262787 C162.25597646 325.12896701 162.83543844 327.52673311 163.41210938 329.92529297 C163.57770607 330.60015306 163.74330276 331.27501316 163.91391754 331.97032356 C164.66426197 335.12600393 165 337.71989875 165 341 C146.85 341 128.7 341 110 341 C107.52050169 331.70188133 105.1065734 322.45854163 102.97558594 313.08544922 C102.70190186 311.8916011 102.42821777 310.69775299 102.14624023 309.46772766 C101.40883163 306.24779042 100.67386132 303.0273109 99.94040966 299.80647039 C99.3248418 297.10440996 98.70773853 294.40270098 98.09072328 291.70097077 C96.63627834 285.3318493 95.18491564 278.96203079 93.73535156 272.59179688 C92.24293534 266.03357779 90.74439529 259.47677815 89.24306273 252.92059505 C87.94825588 247.26508924 86.6576208 241.60864207 85.3702414 235.95144093 C84.60374039 232.58347146 83.83558555 229.21590084 83.06322479 225.84926987 C82.20504071 222.10774975 81.3555352 218.36428907 80.50683594 214.62060547 C80.25129944 213.51200668 79.99576294 212.4034079 79.73248291 211.26121521 C79.50266724 210.24107834 79.27285156 209.22094147 79.03607178 208.16989136 C78.83478542 207.2869383 78.63349907 206.40398525 78.42611313 205.49427605 C78 203 78 203 78 198 C70.08 198 62.16 198 54 198 C54 245.19 54 292.38 54 341 C36.18 341 18.36 341 0 341 C0 228.47 0 115.94 0 0 Z M54 50 C54 82.34 54 114.68 54 148 C76.84616485 149.62560821 76.84616485 149.62560821 95.9375 140.8125 C104.53393334 131.1466539 105.28336083 118.09607388 105.6875 105.75 C105.72584961 104.64825439 105.76419922 103.54650879 105.80371094 102.41137695 C106.61562882 79.30142773 106.61562882 79.30142773 97 59 C84.64951634 47.56814735 70.61079643 50 54 50 Z " fill="#2867B2" transform="translate(793,2238)"/>
<path d="M0 0 C1.14041748 0.00491455 2.28083496 0.0098291 3.45581055 0.01489258 C11.73247869 0.13000208 19.19858206 0.77645695 27.125 3.3125 C28.20265625 3.64121094 29.2803125 3.96992188 30.390625 4.30859375 C48.53284596 10.52079974 61.55381058 23.35233064 70.3125 40.1875 C79.3787332 59.06944167 80.27693044 78.23606836 80.27026367 98.80883789 C80.27326063 100.66300524 80.27666439 102.51717197 80.28044128 104.37133789 C80.28923251 109.38206923 80.29161738 114.39278347 80.29225707 119.40352178 C80.29297054 122.54302282 80.29511049 125.6825196 80.29775429 128.82201958 C80.30699277 139.80053862 80.3110912 150.77904556 80.31030273 161.75756836 C80.30970289 171.94861787 80.32024022 182.1396143 80.3360464 192.33065039 C80.34917796 201.11409821 80.35448426 209.8975288 80.35384732 218.68098634 C80.35359391 223.91172846 80.35635748 229.14242337 80.36702538 234.37315559 C80.37680099 239.30050411 80.37672163 244.22776123 80.36950874 249.15511322 C80.36847443 250.9487897 80.37075586 252.74247217 80.3768692 254.53613853 C80.42412256 269.37901317 79.96967945 284.54050565 76 298.9375 C75.68349487 300.10333618 75.68349487 300.10333618 75.3605957 301.29272461 C71.80318847 313.61261395 65.95255917 324.94347345 57.125 334.3125 C56.41085938 335.07949219 55.69671875 335.84648437 54.9609375 336.63671875 C42.67440439 348.73833748 24.27171039 355.69367135 7.125 356.3125 C5.20494141 356.38984375 5.20494141 356.38984375 3.24609375 356.46875 C-17.89769735 357.03791546 -37.90767728 353.75164597 -54.875 340.3125 C-56.421875 339.19875 -56.421875 339.19875 -58 338.0625 C-76.16817072 320.68424975 -82.23731807 294.61327378 -82.93268371 270.29520702 C-83.03102394 264.63175289 -83.02206062 258.9678367 -83.02026367 253.30371094 C-83.02326109 251.4067427 -83.02666495 249.50977507 -83.03044128 247.61280823 C-83.03922584 242.49070377 -83.04161704 237.36861605 -83.04225707 232.24650478 C-83.04297069 229.03816748 -83.04511087 225.82983436 -83.04775429 222.62149811 C-83.05698912 211.40537753 -83.06109148 200.18926879 -83.06030273 188.97314453 C-83.05970233 178.55538802 -83.0702516 168.13768335 -83.0860464 157.71993995 C-83.09916559 148.74372356 -83.1044848 139.76752404 -83.10384732 130.79129815 C-83.10359364 125.44438108 -83.10637287 120.09751015 -83.11702538 114.75060272 C-83.1267805 109.71736768 -83.12673527 104.6842222 -83.11950874 99.65098381 C-83.11847208 97.8161525 -83.12077037 95.98131538 -83.1268692 94.14649391 C-83.21329002 66.31888991 -78.96392872 40.94341909 -58.7890625 20.1640625 C-42.61631719 4.92548298 -21.66693936 -0.11107949 0 0 Z M-22.875 58.3125 C-27.18573846 65.5884285 -28.02444834 72.54307544 -28.01544189 80.89482117 C-28.01841302 81.75775073 -28.02138414 82.6206803 -28.0244453 83.50975925 C-28.03311523 86.40064036 -28.03463911 89.29147997 -28.03613281 92.18237305 C-28.04076221 94.25552966 -28.04578704 96.32868543 -28.05117798 98.40184021 C-28.06429273 104.03426702 -28.07074521 109.66668192 -28.07518864 115.29912162 C-28.07812102 118.81944485 -28.08222616 122.33976484 -28.08669281 125.86008644 C-28.10036568 136.8783926 -28.11003321 147.89669133 -28.1138947 158.91500539 C-28.11837422 171.62638607 -28.13591815 184.33765915 -28.1648953 197.04900712 C-28.18652548 206.87933372 -28.19659971 216.70963009 -28.19793582 226.53998023 C-28.19898294 232.40885894 -28.20487102 238.27763648 -28.22275543 244.1464901 C-28.239259 249.66964178 -28.24138044 255.19261649 -28.23261642 260.71578407 C-28.23184726 262.73857727 -28.23617276 264.76138007 -28.24607468 266.78414917 C-28.58317294 285.83688839 -28.58317294 285.83688839 -19.30859375 301.9375 C-13.39957308 307.43672282 -7.38077754 308.75583958 0.5703125 308.5625 C7.28947301 307.90496747 13.72162906 305.65030721 18.125 300.3125 C26.17165377 287.95194574 25.42042835 273.91795258 25.3996582 259.74291992 C25.40401158 257.77388822 25.40919681 255.80485821 25.41514587 253.83583069 C25.42848036 248.5133785 25.4291207 243.19099757 25.42658257 237.86853194 C25.425509 233.41310032 25.43040614 228.95768288 25.435188 224.50225431 C25.44626419 213.98415798 25.44673135 203.46609738 25.44067383 192.94799805 C25.4346363 182.12518296 25.44694384 171.30249794 25.4682439 160.47970504 C25.48590206 151.1621357 25.49185458 141.84460762 25.48860615 132.52702218 C25.48679973 126.97333855 25.48936513 121.4197477 25.50332069 115.86607933 C25.51596303 110.63994203 25.5138947 105.4140064 25.50090981 100.18787193 C25.4985583 98.27963694 25.501227 96.37138746 25.50953293 94.4631691 C25.81592622 72.91269691 25.81592622 72.91269691 16.125 54.3125 C10.29831946 49.47759487 3.91531175 47.84214667 -3.55078125 48.0703125 C-11.54011581 48.90281459 -17.66114392 52.17855167 -22.875 58.3125 Z " fill="#2867B2" transform="translate(2605.875,2230.6875)"/>
<path d="M0 0 C1.14041748 0.00491455 2.28083496 0.0098291 3.45581055 0.01489258 C11.73247869 0.13000208 19.19858206 0.77645695 27.125 3.3125 C28.20265625 3.64121094 29.2803125 3.96992188 30.390625 4.30859375 C48.53284596 10.52079974 61.55381058 23.35233064 70.3125 40.1875 C79.3787332 59.06944167 80.27693044 78.23606836 80.27026367 98.80883789 C80.27326063 100.66300524 80.27666439 102.51717197 80.28044128 104.37133789 C80.28923251 109.38206923 80.29161738 114.39278347 80.29225707 119.40352178 C80.29297054 122.54302282 80.29511049 125.6825196 80.29775429 128.82201958 C80.30699277 139.80053862 80.3110912 150.77904556 80.31030273 161.75756836 C80.30970289 171.94861787 80.32024022 182.1396143 80.3360464 192.33065039 C80.34917796 201.11409821 80.35448426 209.8975288 80.35384732 218.68098634 C80.35359391 223.91172846 80.35635748 229.14242337 80.36702538 234.37315559 C80.37680099 239.30050411 80.37672163 244.22776123 80.36950874 249.15511322 C80.36847443 250.9487897 80.37075586 252.74247217 80.3768692 254.53613853 C80.42412256 269.37901317 79.96967945 284.54050565 76 298.9375 C75.68349487 300.10333618 75.68349487 300.10333618 75.3605957 301.29272461 C71.80318847 313.61261395 65.95255917 324.94347345 57.125 334.3125 C56.41085938 335.07949219 55.69671875 335.84648437 54.9609375 336.63671875 C42.67440439 348.73833748 24.27171039 355.69367135 7.125 356.3125 C5.20494141 356.38984375 5.20494141 356.38984375 3.24609375 356.46875 C-17.89769735 357.03791546 -37.90767728 353.75164597 -54.875 340.3125 C-56.421875 339.19875 -56.421875 339.19875 -58 338.0625 C-76.16817072 320.68424975 -82.23731807 294.61327378 -82.93268371 270.29520702 C-83.03102394 264.63175289 -83.02206062 258.9678367 -83.02026367 253.30371094 C-83.02326109 251.4067427 -83.02666495 249.50977507 -83.03044128 247.61280823 C-83.03922584 242.49070377 -83.04161704 237.36861605 -83.04225707 232.24650478 C-83.04297069 229.03816748 -83.04511087 225.82983436 -83.04775429 222.62149811 C-83.05698912 211.40537753 -83.06109148 200.18926879 -83.06030273 188.97314453 C-83.05970233 178.55538802 -83.0702516 168.13768335 -83.0860464 157.71993995 C-83.09916559 148.74372356 -83.1044848 139.76752404 -83.10384732 130.79129815 C-83.10359364 125.44438108 -83.10637287 120.09751015 -83.11702538 114.75060272 C-83.1267805 109.71736768 -83.12673527 104.6842222 -83.11950874 99.65098381 C-83.11847208 97.8161525 -83.12077037 95.98131538 -83.1268692 94.14649391 C-83.21329002 66.31888991 -78.96392872 40.94341909 -58.7890625 20.1640625 C-42.61631719 4.92548298 -21.66693936 -0.11107949 0 0 Z M-22.875 58.3125 C-27.18573846 65.5884285 -28.02444834 72.54307544 -28.01544189 80.89482117 C-28.01841302 81.75775073 -28.02138414 82.6206803 -28.0244453 83.50975925 C-28.03311523 86.40064036 -28.03463911 89.29147997 -28.03613281 92.18237305 C-28.04076221 94.25552966 -28.04578704 96.32868543 -28.05117798 98.40184021 C-28.06429273 104.03426702 -28.07074521 109.66668192 -28.07518864 115.29912162 C-28.07812102 118.81944485 -28.08222616 122.33976484 -28.08669281 125.86008644 C-28.10036568 136.8783926 -28.11003321 147.89669133 -28.1138947 158.91500539 C-28.11837422 171.62638607 -28.13591815 184.33765915 -28.1648953 197.04900712 C-28.18652548 206.87933372 -28.19659971 216.70963009 -28.19793582 226.53998023 C-28.19898294 232.40885894 -28.20487102 238.27763648 -28.22275543 244.1464901 C-28.239259 249.66964178 -28.24138044 255.19261649 -28.23261642 260.71578407 C-28.23184726 262.73857727 -28.23617276 264.76138007 -28.24607468 266.78414917 C-28.58317294 285.83688839 -28.58317294 285.83688839 -19.30859375 301.9375 C-13.39957308 307.43672282 -7.38077754 308.75583958 0.5703125 308.5625 C7.28947301 307.90496747 13.72162906 305.65030721 18.125 300.3125 C26.17165377 287.95194574 25.42042835 273.91795258 25.3996582 259.74291992 C25.40401158 257.77388822 25.40919681 255.80485821 25.41514587 253.83583069 C25.42848036 248.5133785 25.4291207 243.19099757 25.42658257 237.86853194 C25.425509 233.41310032 25.43040614 228.95768288 25.435188 224.50225431 C25.44626419 213.98415798 25.44673135 203.46609738 25.44067383 192.94799805 C25.4346363 182.12518296 25.44694384 171.30249794 25.4682439 160.47970504 C25.48590206 151.1621357 25.49185458 141.84460762 25.48860615 132.52702218 C25.48679973 126.97333855 25.48936513 121.4197477 25.50332069 115.86607933 C25.51596303 110.63994203 25.5138947 105.4140064 25.50090981 100.18787193 C25.4985583 98.27963694 25.501227 96.37138746 25.50953293 94.4631691 C25.81592622 72.91269691 25.81592622 72.91269691 16.125 54.3125 C10.29831946 49.47759487 3.91531175 47.84214667 -3.55078125 48.0703125 C-11.54011581 48.90281459 -17.66114392 52.17855167 -22.875 58.3125 Z " fill="#2867B2" transform="translate(2240.875,2230.6875)"/>
<path d="M0 0 C17.49 0 34.98 0 53 0 C53 45.87 53 91.74 53 139 C69.83 139 86.66 139 104 139 C104 93.13 104 47.26 104 0 C121.82 0 139.64 0 158 0 C158 112.53 158 225.06 158 341 C140.18 341 122.36 341 104 341 C104 290.84 104 240.68 104 189 C87.17 189 70.34 189 53 189 C53 239.16 53 289.32 53 341 C35.51 341 18.02 341 0 341 C0 228.47 0 115.94 0 0 Z " fill="#2867B2" transform="translate(1733,2238)"/>
<path d="M0 0 C17.82 0 35.64 0 54 0 C54.01458252 8.11625977 54.02916504 16.23251953 54.04418945 24.59472656 C54.09298751 50.58866454 54.15640788 76.58254721 54.22898628 102.57642902 C54.24025392 106.61670758 54.25139245 110.65698649 54.26245117 114.69726562 C54.26465486 115.50158389 54.26685854 116.30590215 54.269129 117.1345937 C54.30446368 130.14359464 54.32934941 143.15259553 54.35034702 156.16162661 C54.37213962 169.51846942 54.4052228 182.87525017 54.44870156 196.23204017 C54.47515878 204.46829622 54.49289777 212.70447501 54.49934604 220.94077143 C54.50461812 226.59517305 54.52089587 232.24947758 54.54566566 237.9038271 C54.55961866 241.1619998 54.56723853 244.41996585 54.56500816 247.67817307 C54.563349 251.22121719 54.58011042 254.76373056 54.60127258 258.30670166 C54.59642501 259.3223036 54.59157743 260.33790555 54.58658296 261.3842833 C54.68102449 271.0157432 56.0623525 280.21963431 62 288 C62 288.66 62 289.32 62 290 C63.31077107 290.710001 64.6534734 291.36039986 66 292 C67.670625 292.804375 67.670625 292.804375 69.375 293.625 C76.49174575 296.23713889 85.37602078 296.19890202 92.5625 293.8125 C99.0894285 290.37102861 102.43099046 285.74450788 105 279 C106.86208431 271.5194748 107.29316876 264.18021174 107.2784729 256.50288391 C107.2842653 255.39909321 107.2900577 254.2953025 107.29602563 253.15806359 C107.31292418 249.48856483 107.31589339 245.81919262 107.31884766 242.1496582 C107.32815284 239.50766804 107.33823627 236.86569145 107.34928894 234.22370911 C107.37148052 228.55063212 107.38654231 222.87757294 107.39665604 217.20446205 C107.41128895 209.00226907 107.43683848 200.80013813 107.46498732 192.59798171 C107.51037183 179.28807526 107.54702098 165.97815982 107.578125 152.66821289 C107.6083448 139.74469428 107.64271075 126.82119757 107.68261719 113.89770508 C107.68507874 113.10008022 107.68754028 112.30245537 107.69007643 111.48066006 C107.70245169 107.47890573 107.7149081 103.47715166 107.72740483 99.47539771 C107.83084765 66.3169578 107.91847329 33.15850283 108 0 C125.82 0 143.64 0 162 0 C162.0662641 33.9285807 162.12160723 67.85709808 162.15319599 101.78572412 C162.15694765 105.80067166 162.16083066 109.81561907 162.16479492 113.83056641 C162.16558185 114.62979557 162.16636878 115.42902474 162.16717956 116.25247297 C162.1801969 129.15586975 162.20383027 142.05922601 162.23145839 154.96259883 C162.25961521 168.22451841 162.27619786 181.48641692 162.28226548 194.74836516 C162.28636073 202.91707482 162.29924605 211.08566991 162.3237494 219.25434425 C162.33973382 224.8727907 162.34437199 230.49117881 162.34050413 236.10964629 C162.33860209 239.34048735 162.34299688 242.57109068 162.35761642 245.80190468 C162.49249489 277.17282383 159.09624549 306.13174088 137.05078125 330.12109375 C125.09899402 341.79969727 106.52980025 348.40343578 90 349 C88.07994141 349.07734375 88.07994141 349.07734375 86.12109375 349.15625 C62.29584906 349.79480471 40.0649967 345.03208738 22.24609375 328.26953125 C13.23374107 319.16313663 7.84522478 307.65676018 4.1875 295.5 C3.992771 294.8613501 3.79804199 294.2227002 3.59741211 293.56469727 C-0.76487217 278.05755461 -0.27403485 262.30433747 -0.22705078 246.35009766 C-0.22648595 243.65840759 -0.22671682 240.96672842 -0.22793579 238.27503967 C-0.22897897 232.50377151 -0.22276214 226.73254896 -0.21146011 220.96129227 C-0.1951305 212.61727218 -0.18998952 204.27327389 -0.18748413 195.92923956 C-0.18311867 182.38803526 -0.16984091 168.84685521 -0.15087891 155.30566406 C-0.13249025 142.16015747 -0.1183484 129.0146575 -0.10986328 115.86914062 C-0.10933783 115.05736896 -0.10881239 114.2455973 -0.10827102 113.40922649 C-0.10566074 109.33636396 -0.10313337 105.26350139 -0.10064721 101.19063878 C-0.07995052 67.46040436 -0.0431002 33.73021508 0 0 Z " fill="#2867B2" transform="translate(582,2238)"/>
<path d="M0 0 C1.13783936 0.00491455 2.27567871 0.0098291 3.44799805 0.01489258 C23.49125224 0.2933306 41.10614145 5.61551722 55.875 19.5625 C67.37219197 31.56662283 72.35584661 46.20268817 75.1875 62.3125 C75.36240967 63.29565186 75.53731934 64.27880371 75.7175293 65.29174805 C76.44634844 70.48542594 76.31080902 75.69982233 76.28515625 80.93359375 C76.28414917 81.90945435 76.28314209 82.88531494 76.28210449 83.89074707 C76.27690146 87.51051013 76.26294033 91.13025633 76.25 94.75 C76.229375 102.855625 76.20875 110.96125 76.1875 119.3125 C59.3575 119.3125 42.5275 119.3125 25.1875 119.3125 C24.875 99.1875 24.875 99.1875 24.79956055 92.92919922 C24.80154649 72.06953235 24.80154649 72.06953235 15.1875 54.3125 C8.72447084 49.8543797 1.91245317 48.64292139 -5.8125 49.3125 C-12.274016 50.58538629 -17.563306 53.20243033 -21.8125 58.3125 C-26.06540555 65.64197553 -26.96198168 72.5121565 -26.95294189 80.89482117 C-26.95591302 81.75775073 -26.95888414 82.6206803 -26.9619453 83.50975925 C-26.97061523 86.40064036 -26.97213911 89.29147997 -26.97363281 92.18237305 C-26.97826221 94.25552966 -26.98328704 96.32868543 -26.98867798 98.40184021 C-27.00179273 104.03426702 -27.00824521 109.66668192 -27.01268864 115.29912162 C-27.01562102 118.81944485 -27.01972616 122.33976484 -27.02419281 125.86008644 C-27.03786568 136.8783926 -27.04753321 147.89669133 -27.0513947 158.91500539 C-27.05587422 171.62638607 -27.07341815 184.33765915 -27.1023953 197.04900712 C-27.12402548 206.87933372 -27.13409971 216.70963009 -27.13543582 226.53998023 C-27.13648294 232.40885894 -27.14237102 238.27763648 -27.16025543 244.1464901 C-27.176759 249.66964178 -27.17888044 255.19261649 -27.17011642 260.71578407 C-27.16934726 262.73857727 -27.17367276 264.76138007 -27.18357468 266.78414917 C-27.53522594 284.6370279 -27.53522594 284.6370279 -19.8125 300.3125 C-14.37247985 305.63163081 -9.43311328 307.3465252 -1.9375 307.625 C4.32864743 307.48193727 9.5115019 305.83295346 14.9375 302.75 C24.40873089 292.48949987 24.4779515 278.53486039 24.6015625 265.33203125 C24.62092865 264.03802902 24.6402948 262.74402679 24.6602478 261.41081238 C24.71104823 258.00962161 24.75094844 254.60839178 24.78839111 251.20703125 C24.82876214 247.72060949 24.87960129 244.23434037 24.9296875 240.74804688 C25.02679644 233.93625958 25.10673276 227.12457865 25.1875 220.3125 C14.6275 220.3125 4.0675 220.3125 -6.8125 220.3125 C-6.8125 205.7925 -6.8125 191.2725 -6.8125 176.3125 C20.5775 176.3125 47.9675 176.3125 76.1875 176.3125 C76.1875 233.0725 76.1875 289.8325 76.1875 348.3125 C71.83631751 346.572027 68.27805049 344.56834222 64.42578125 341.99609375 C63.79391403 341.57957047 63.16204681 341.16304718 62.5110321 340.73390198 C60.50453207 339.41014831 58.50213595 338.08034289 56.5 336.75 C54.48638752 335.41728214 52.47194757 334.08583164 50.45683289 332.75538635 C49.20595813 331.92895684 47.95609522 331.10099335 46.70735168 330.27134705 C43.52662936 328.15784387 43.52662936 328.15784387 40.1875 326.3125 C39.94 327.02664063 39.6925 327.74078125 39.4375 328.4765625 C35.39409183 337.65004478 27.61922557 344.27554446 19.1875 349.3125 C18.55457031 349.71082031 17.92164062 350.10914062 17.26953125 350.51953125 C1.84359593 359.30146031 -18.22476907 357.56736091 -34.8125 353.3125 C-50.95414804 348.23569134 -62.70506638 337.97686726 -70.8125 323.3125 C-81.8820235 301.46475624 -83.13000184 277.4838246 -83.07128906 253.41723633 C-83.07400815 251.50938281 -83.07757417 249.60153034 -83.08190918 247.69367981 C-83.09092458 242.57403238 -83.08753487 237.45446674 -83.08115101 232.33481812 C-83.07603636 226.94250431 -83.08079727 221.55019682 -83.08392334 216.15788269 C-83.08754629 207.11118328 -83.08280704 198.06451668 -83.07324219 189.01782227 C-83.06235099 178.59707444 -83.06589484 168.17640487 -83.076895 157.75565892 C-83.08600392 148.76231211 -83.08723589 139.7689887 -83.08201766 130.77563876 C-83.07891898 125.42436008 -83.07843041 120.07311805 -83.08509064 114.72184181 C-83.0909166 109.69096823 -83.08677232 104.66019451 -83.07530212 99.62933159 C-83.0726838 97.79610992 -83.07337145 95.96287968 -83.07782745 94.12966156 C-83.13916059 66.30785585 -78.89848788 40.94039014 -58.7265625 20.1640625 C-42.57590233 4.94629245 -21.64178902 -0.11134766 0 0 Z " fill="#2867B2" transform="translate(2808.8125,2230.6875)"/>
<path d="M0 0 C1.14041748 0.00491455 2.28083496 0.0098291 3.45581055 0.01489258 C11.73247869 0.13000208 19.19858206 0.77645695 27.125 3.3125 C28.20265625 3.64121094 29.2803125 3.96992188 30.390625 4.30859375 C48.53284596 10.52079974 61.55381058 23.35233064 70.3125 40.1875 C79.81112618 59.96997212 80.28341971 80.00295072 80.1875 101.5 C80.166875 108.038125 80.14625 114.57625 80.125 121.3125 C61.975 121.3125 43.825 121.3125 25.125 121.3125 C24.8125 100.1875 24.8125 100.1875 24.73706055 93.61279297 C24.82544914 72.39887921 24.82544914 72.39887921 15.125 54.3125 C8.66197084 49.8543797 1.84995317 48.64292139 -5.875 49.3125 C-12.336516 50.58538629 -17.625806 53.20243033 -21.875 58.3125 C-26.12790555 65.64197553 -27.02448168 72.5121565 -27.01544189 80.89482117 C-27.01841302 81.75775073 -27.02138414 82.6206803 -27.0244453 83.50975925 C-27.03311523 86.40064036 -27.03463911 89.29147997 -27.03613281 92.18237305 C-27.04076221 94.25552966 -27.04578704 96.32868543 -27.05117798 98.40184021 C-27.06429273 104.03426702 -27.07074521 109.66668192 -27.07518864 115.29912162 C-27.07812102 118.81944485 -27.08222616 122.33976484 -27.08669281 125.86008644 C-27.10036568 136.8783926 -27.11003321 147.89669133 -27.1138947 158.91500539 C-27.11837422 171.62638607 -27.13591815 184.33765915 -27.1648953 197.04900712 C-27.18652548 206.87933372 -27.19659971 216.70963009 -27.19793582 226.53998023 C-27.19898294 232.40885894 -27.20487102 238.27763648 -27.22275543 244.1464901 C-27.239259 249.66964178 -27.24138044 255.19261649 -27.23261642 260.71578407 C-27.23184726 262.73857727 -27.23617276 264.76138007 -27.24607468 266.78414917 C-27.59772594 284.6370279 -27.59772594 284.6370279 -19.875 300.3125 C-14.43497985 305.63163081 -9.49561328 307.3465252 -2 307.625 C4.26614743 307.48193727 9.4490019 305.83295346 14.875 302.75 C24.01629241 292.84693322 24.40551837 279.43588025 24.5390625 266.64453125 C24.55670654 265.61372437 24.57435059 264.58291748 24.5925293 263.52087402 C24.65492092 259.72239908 24.70157118 255.92367862 24.75 252.125 C24.87375 243.606875 24.9975 235.08875 25.125 226.3125 C43.275 226.3125 61.425 226.3125 80.125 226.3125 C80.16625 233.36625 80.2075 240.42 80.25 247.6875 C80.26820801 249.87294434 80.28641602 252.05838867 80.30517578 254.31005859 C80.37848059 269.28689663 80.00816366 284.40093344 76 298.9375 C75.68349487 300.10333618 75.68349487 300.10333618 75.3605957 301.29272461 C71.80318847 313.61261395 65.95255917 324.94347345 57.125 334.3125 C56.41085937 335.07949219 55.69671875 335.84648437 54.9609375 336.63671875 C42.67440439 348.73833748 24.27171039 355.69367135 7.125 356.3125 C5.20494141 356.38984375 5.20494141 356.38984375 3.24609375 356.46875 C-17.89769735 357.03791546 -37.90767728 353.75164597 -54.875 340.3125 C-56.421875 339.19875 -56.421875 339.19875 -58 338.0625 C-76.16817072 320.68424975 -82.23731807 294.61327378 -82.93268371 270.29520702 C-83.03102394 264.63175289 -83.02206062 258.9678367 -83.02026367 253.30371094 C-83.02326109 251.4067427 -83.02666495 249.50977507 -83.03044128 247.61280823 C-83.03922584 242.49070377 -83.04161704 237.36861605 -83.04225707 232.24650478 C-83.04297069 229.03816748 -83.04511087 225.82983436 -83.04775429 222.62149811 C-83.05698912 211.40537753 -83.06109148 200.18926879 -83.06030273 188.97314453 C-83.05970233 178.55538802 -83.0702516 168.13768335 -83.0860464 157.71993995 C-83.09916559 148.74372356 -83.1044848 139.76752404 -83.10384732 130.79129815 C-83.10359364 125.44438108 -83.10637287 120.09751015 -83.11702538 114.75060272 C-83.1267805 109.71736768 -83.12673527 104.6842222 -83.11950874 99.65098381 C-83.11847208 97.8161525 -83.12077037 95.98131538 -83.1268692 94.14649391 C-83.21329002 66.31888991 -78.96392872 40.94341909 -58.7890625 20.1640625 C-42.61631719 4.92548298 -21.66693936 -0.11107949 0 0 Z " fill="#2867B2" transform="translate(1608.875,2230.6875)"/>
<path d="M0 0 C19.23315344 15.14537312 28.30137099 37.2021116 32.33886719 60.78466797 C32.54635114 62.72221957 32.73270966 64.66214918 32.89794922 66.60375977 C32.98223175 67.57862839 33.06651428 68.55349701 33.15335083 69.5579071 C33.21457123 70.29273819 33.27579163 71.02756927 33.33886719 71.78466797 C26.59522173 72.78661586 19.85076352 73.78294663 13.10571289 74.77539062 C10.81157678 75.11361721 8.51762927 75.45312564 6.22387695 75.79394531 C2.92545627 76.28381684 -0.37361684 76.76906327 -3.67285156 77.25341797 C-4.69698654 77.40653442 -5.72112152 77.55965088 -6.77629089 77.71740723 C-7.73690933 77.85755249 -8.69752777 77.99769775 -9.68725586 78.14208984 C-10.52886765 78.26644409 -11.37047943 78.39079834 -12.2375946 78.5189209 C-14.73185505 78.79242284 -17.15400289 78.83066298 -19.66113281 78.78466797 C-19.8196875 77.55232422 -19.97824219 76.31998047 -20.14160156 75.05029297 C-22.59784703 56.76081392 -22.59784703 56.76081392 -32.66113281 41.78466797 C-39.52674955 37.1220843 -46.619429 36.11895251 -54.72363281 37.40966797 C-60.64917063 38.81744326 -65.60159221 40.91565618 -69.23144531 45.97216797 C-75.08020459 56.13229837 -75.27113746 68.32899224 -72.82519531 79.65576172 C-63.36653972 107.61910257 -40.47689274 129.30958133 -19.97363281 149.47216797 C-0.73120031 168.39695002 -0.73120031 168.39695002 5.57446289 176.515625 C7.57256861 179.08521052 9.69626667 181.52237591 11.83886719 183.97216797 C30.8576898 207.27271505 38.80110085 237.5128137 36.12060547 267.20214844 C33.44908471 289.89364196 23.54591454 309.64312025 6.11621094 324.65576172 C-13.9344837 340.02514087 -37.74486086 342.91234848 -62.42236328 340.51660156 C-82.29948497 337.71995976 -101.51926066 326.77218647 -113.66113281 310.78466797 C-127.14417833 291.3574841 -132.97893914 269.26702419 -132.66113281 245.78466797 C-128.64539141 245.1069874 -124.62926066 244.43166372 -120.61279297 243.75830078 C-119.25331542 243.53006966 -117.89393629 243.30125128 -116.53466797 243.07177734 C-109.40033675 241.86775994 -102.2615067 240.69585588 -95.10644531 239.62060547 C-94.03152832 239.45866699 -92.95661133 239.29672852 -91.84912109 239.12988281 C-88.43035393 238.75967782 -85.09723303 238.72670443 -81.66113281 238.78466797 C-81.50257813 240.06599609 -81.34402344 241.34732422 -81.18066406 242.66748047 C-79.11659737 258.36869574 -76.72026725 273.77841811 -63.59863281 284.22216797 C-55.11030766 288.73723454 -45.20807214 289.29983645 -35.91113281 286.84716797 C-28.69277477 283.97331701 -22.3788238 278.12105518 -19.09863281 271.09716797 C-14.84790112 259.56231859 -16.44000029 248.55117639 -21.06738281 237.39404297 C-25.30535488 228.47830928 -30.59310823 220.55377985 -36.66113281 212.78466797 C-37.07363281 212.25502441 -37.48613281 211.72538086 -37.91113281 211.1796875 C-45.66092627 201.39254599 -54.58792805 192.69228008 -63.47631836 183.95483398 C-68.22893623 179.27561217 -72.84971133 174.56035908 -77.18334961 169.48730469 C-79.22754581 167.13207186 -81.42756193 164.95946067 -83.66113281 162.78466797 C-87.87687554 158.60057496 -91.85822978 154.34512141 -95.66113281 149.78466797 C-96.08620117 149.2893457 -96.51126953 148.79402344 -96.94921875 148.28369141 C-117.68564381 124.04612663 -129.8163047 96.41548624 -128.53613281 64.03466797 C-126.76291579 44.66063014 -119.79833638 27.24030057 -106.66113281 12.78466797 C-105.83871094 11.86943359 -105.01628906 10.95419922 -104.16894531 10.01123047 C-77.95724012 -17.71999387 -31.08775806 -22.74468836 0 0 Z " fill="#2867B2" transform="translate(3333.6611328125,2246.21533203125)"/>
<path d="M0 0 C19.23315344 15.14537312 28.30137099 37.2021116 32.33886719 60.78466797 C32.54635114 62.72221957 32.73270966 64.66214918 32.89794922 66.60375977 C32.98223175 67.57862839 33.06651428 68.55349701 33.15335083 69.5579071 C33.21457123 70.29273819 33.27579163 71.02756927 33.33886719 71.78466797 C26.59522173 72.78661586 19.85076352 73.78294663 13.10571289 74.77539062 C10.81157678 75.11361721 8.51762927 75.45312564 6.22387695 75.79394531 C2.92545627 76.28381684 -0.37361684 76.76906327 -3.67285156 77.25341797 C-4.69698654 77.40653442 -5.72112152 77.55965088 -6.77629089 77.71740723 C-7.73690933 77.85755249 -8.69752777 77.99769775 -9.68725586 78.14208984 C-10.52886765 78.26644409 -11.37047943 78.39079834 -12.2375946 78.5189209 C-14.73185505 78.79242284 -17.15400289 78.83066298 -19.66113281 78.78466797 C-19.8196875 77.55232422 -19.97824219 76.31998047 -20.14160156 75.05029297 C-22.59784703 56.76081392 -22.59784703 56.76081392 -32.66113281 41.78466797 C-39.52674955 37.1220843 -46.619429 36.11895251 -54.72363281 37.40966797 C-60.64917063 38.81744326 -65.60159221 40.91565618 -69.23144531 45.97216797 C-75.08020459 56.13229837 -75.27113746 68.32899224 -72.82519531 79.65576172 C-63.36653972 107.61910257 -40.47689274 129.30958133 -19.97363281 149.47216797 C-0.73120031 168.39695002 -0.73120031 168.39695002 5.57446289 176.515625 C7.57256861 179.08521052 9.69626667 181.52237591 11.83886719 183.97216797 C30.8576898 207.27271505 38.80110085 237.5128137 36.12060547 267.20214844 C33.44908471 289.89364196 23.54591454 309.64312025 6.11621094 324.65576172 C-13.9344837 340.02514087 -37.74486086 342.91234848 -62.42236328 340.51660156 C-82.29948497 337.71995976 -101.51926066 326.77218647 -113.66113281 310.78466797 C-127.14417833 291.3574841 -132.97893914 269.26702419 -132.66113281 245.78466797 C-128.64539141 245.1069874 -124.62926066 244.43166372 -120.61279297 243.75830078 C-119.25331542 243.53006966 -117.89393629 243.30125128 -116.53466797 243.07177734 C-109.40033675 241.86775994 -102.2615067 240.69585588 -95.10644531 239.62060547 C-94.03152832 239.45866699 -92.95661133 239.29672852 -91.84912109 239.12988281 C-88.43035393 238.75967782 -85.09723303 238.72670443 -81.66113281 238.78466797 C-81.50257813 240.06599609 -81.34402344 241.34732422 -81.18066406 242.66748047 C-79.11659737 258.36869574 -76.72026725 273.77841811 -63.59863281 284.22216797 C-55.11030766 288.73723454 -45.20807214 289.29983645 -35.91113281 286.84716797 C-28.69277477 283.97331701 -22.3788238 278.12105518 -19.09863281 271.09716797 C-14.84790112 259.56231859 -16.44000029 248.55117639 -21.06738281 237.39404297 C-25.30535488 228.47830928 -30.59310823 220.55377985 -36.66113281 212.78466797 C-37.07363281 212.25502441 -37.48613281 211.72538086 -37.91113281 211.1796875 C-45.66092627 201.39254599 -54.58792805 192.69228008 -63.47631836 183.95483398 C-68.22893623 179.27561217 -72.84971133 174.56035908 -77.18334961 169.48730469 C-79.22754581 167.13207186 -81.42756193 164.95946067 -83.66113281 162.78466797 C-87.87687554 158.60057496 -91.85822978 154.34512141 -95.66113281 149.78466797 C-96.08620117 149.2893457 -96.51126953 148.79402344 -96.94921875 148.28369141 C-117.68564381 124.04612663 -129.8163047 96.41548624 -128.53613281 64.03466797 C-126.76291579 44.66063014 -119.79833638 27.24030057 -106.66113281 12.78466797 C-105.83871094 11.86943359 -105.01628906 10.95419922 -104.16894531 10.01123047 C-77.95724012 -17.71999387 -31.08775806 -22.74468836 0 0 Z " fill="#2867B2" transform="translate(513.6611328125,2246.21533203125)"/>
<path d="M0 0 C45.21 0 90.42 0 137 0 C137 16.5 137 33 137 50 C109.28 50 81.56 50 53 50 C53 79.37 53 108.74 53 139 C73.13 139 93.26 139 114 139 C114 155.5 114 172 114 189 C93.87 189 73.74 189 53 189 C53 222 53 255 53 289 C80.72 289 108.44 289 137 289 C137 306.16 137 323.32 137 341 C91.79 341 46.58 341 0 341 C0 228.47 0 115.94 0 0 Z " fill="#2867B2" transform="translate(3040,2238)"/>
<path d="M0 0 C45.21 0 90.42 0 137 0 C137 16.5 137 33 137 50 C109.28 50 81.56 50 53 50 C53 79.37 53 108.74 53 139 C73.13 139 93.26 139 114 139 C114 155.5 114 172 114 189 C93.87 189 73.74 189 53 189 C53 222 53 255 53 289 C80.72 289 108.44 289 137 289 C137 306.16 137 323.32 137 341 C91.79 341 46.58 341 0 341 C0 228.47 0 115.94 0 0 Z " fill="#2867B2" transform="translate(1355,2238)"/>
<path d="M0 0 C53.46 0 106.92 0 162 0 C162 16.5 162 33 162 50 C144.18 50 126.36 50 108 50 C108 146.03 108 242.06 108 341 C90.18 341 72.36 341 54 341 C54 244.97 54 148.94 54 50 C36.18 50 18.36 50 0 50 C0 33.5 0 17 0 0 Z " fill="#2867B2" transform="translate(1169,2238)"/>
<path d="M0 0 C17.82 0 35.64 0 54 0 C54.0093457 8.13197021 54.01869141 16.26394043 54.02832031 24.64233398 C54.06103881 50.6714761 54.11333207 76.70054362 54.17792095 102.72962501 C54.18793822 106.77376983 54.19778238 110.81791505 54.20751953 114.86206055 C54.2094609 115.66716574 54.21140228 116.47227094 54.21340248 117.30177326 C54.24441046 130.33220639 54.26139977 143.36262192 54.27319422 156.393085 C54.28561201 169.7668754 54.31312759 183.14057352 54.35461307 196.51430565 C54.37973052 204.76441548 54.39311856 213.01437222 54.39142957 221.26452083 C54.39139978 226.92452979 54.40605564 232.58438299 54.43216428 238.24433123 C54.4467897 241.50826662 54.45285176 244.77181912 54.44580269 248.03578949 C54.43916811 251.5800222 54.45707255 255.123326 54.48101807 258.66746521 C54.47325765 259.69180568 54.46549723 260.71614614 54.45750165 261.77152723 C54.55167259 269.65588107 56.33560515 275.68750911 61.3125 281.875 C67.39689157 286.68591427 73.93764978 288.13129356 81.5246582 288.11352539 C82.60540115 288.11344986 83.6861441 288.11337433 84.79963684 288.11329651 C85.9550145 288.10813522 87.11039215 288.10297394 88.30078125 288.09765625 C89.49229294 288.0962413 90.68380463 288.09482635 91.91142273 288.09336853 C95.71180751 288.08777728 99.51213307 288.07522632 103.3125 288.0625 C105.89127519 288.05748387 108.4700513 288.05292116 111.04882812 288.04882812 C117.36590557 288.03781071 123.68294855 288.02108122 130 288 C130.07444227 295.34438005 129.93461841 302.60130922 129.34375 309.921875 C129.27716187 310.79273743 129.21057373 311.66359985 129.14196777 312.56085205 C128.93225087 315.29091892 128.71625514 318.02044411 128.5 320.75 C128.35504911 322.62236339 128.21051462 324.49475907 128.06640625 326.3671875 C127.71573478 330.91184461 127.359439 335.45602826 127 340 C108.7243021 340.69699385 90.44053498 341.15602399 72.15170288 341.28710938 C70.19331559 341.30388443 68.23497441 341.32767985 66.27676392 341.35888672 C49.00886406 341.6218506 35.1135822 339.77633816 21.59765625 327.88671875 C3.06681983 309.0391159 -0.1933732 279.75507267 -0.12025452 254.57881165 C-0.12110894 253.48318804 -0.12196337 252.38756444 -0.12284368 251.25874013 C-0.12448028 247.61689367 -0.11900711 243.97509411 -0.11352539 240.33325195 C-0.1132431 237.71097311 -0.11340207 235.0886942 -0.1139679 232.46641541 C-0.11449028 226.83589004 -0.11137338 221.20537633 -0.10573006 215.5748539 C-0.09757628 207.43423131 -0.09499587 199.29361432 -0.09374207 191.1529881 C-0.09155762 177.94289057 -0.08491405 164.73279924 -0.07543945 151.52270508 C-0.06624959 138.696208 -0.05917646 125.8697126 -0.05493164 113.04321289 C-0.05466892 112.25156203 -0.05440619 111.45991116 -0.05413551 110.64427087 C-0.0528304 106.67248491 -0.05156671 102.70069893 -0.05032361 98.72891295 C-0.03996993 65.8192698 -0.02154184 32.9096382 0 0 Z " fill="#2867B2" transform="translate(2375,2240)"/>
<path d="M0 0 C17.82 0 35.64 0 54 0 C54 112.53 54 225.06 54 341 C36.18 341 18.36 341 0 341 C0 228.47 0 115.94 0 0 Z " fill="#2867B2" transform="translate(2934,2238)"/>
<path d="M0 0 C17.82 0 35.64 0 54 0 C54 112.53 54 225.06 54 341 C36.18 341 18.36 341 0 341 C0 228.47 0 115.94 0 0 Z " fill="#2867B2" transform="translate(995,2238)"/>
</svg>
